<svg id="Capa_1" enable-background="new 0 0 512.854 512.854" height="512" viewBox="0 0 512.854 512.854" width="512" xmlns="http://www.w3.org/2000/svg"><g><g><g><path d="m461.529 7.5h-410.204c-9.108 0-16.491 7.383-16.491 16.491v35.468c0 9.108 7.383 16.491 16.491 16.491h10.665c2.939 0 5.322 2.383 5.322 5.322v36.062c0 4.537 5.312 6.993 8.769 4.055l48.449-41.179c3.235-2.749 7.341-4.259 11.587-4.259h88.666c1.972 0 3.782 1.09 4.703 2.833l22.238 44.893c1.998 3.778 7.409 3.778 9.407 0l22.238-44.893c.922-1.743 2.732-2.833 4.703-2.833h88.666c4.245 0 8.352 1.51 11.587 4.259l48.448 41.181c3.457 2.938 8.769.481 8.769-4.055v-36.063c0-2.939 2.383-5.322 5.322-5.322h10.665c9.108 0 16.491-7.383 16.491-16.491v-35.469c.001-9.108-7.383-16.491-16.491-16.491z" fill="#d9b1ee"/></g><g><path d="m116.117 75.949h20c-4.25 0-8.35 1.51-11.59 4.26l-48.45 41.18c-3.45 2.94-8.76.48-8.76-4.05v-5.5l37.21-31.63c3.24-2.75 7.34-4.26 11.59-4.26z" fill="#cb97e7"/></g><g><path d="m268.067 75.949h20c-1.97 0-3.78 1.09-4.7 2.83l-22.24 44.9c-1.99 3.78-7.41 3.78-9.4 0l-5.3-10.7 16.94-34.2c.92-1.74 2.73-2.83 4.7-2.83z" fill="#cb97e7"/></g><g><path d="m478.017 23.989v35.47c0 9.11-7.38 16.49-16.49 16.49h-10.66c-2.94 0-5.33 2.38-5.33 5.32v36.07c0 4.53-5.31 6.99-8.76 4.05l-11.24-9.55v-30.57c0-2.94 2.39-5.32 5.33-5.32h10.66c9.11 0 16.49-7.38 16.49-16.49v-35.47c0-9.11-7.38-16.49-16.49-16.49h20c9.11 0 16.49 7.38 16.49 16.49z" fill="#cb97e7"/></g><g><g><g><g><path d="m440.302 505.354h-121.934v-16.481c0-33.671 27.296-60.967 60.967-60.967 33.671 0 60.967 27.296 60.967 60.967z" fill="#d1f19e"/></g><g><path d="m440.298 488.87v16.482h-17.213v-16.482c0-16.835-6.825-32.077-17.85-43.102-9.123-9.123-21.112-15.363-34.504-17.248 2.814-.404 5.689-.611 8.607-.611 16.835 0 32.077 6.825 43.111 17.859 11.024 11.025 17.849 26.267 17.849 43.102z" fill="#bbec6c"/></g><g><path d="m379.335 446.559c-8.089 0-14.646-6.557-14.646-14.646v-33.759h29.293v33.759c0 8.088-6.558 14.646-14.647 14.646z" fill="#d88a55"/></g><g><path d="m393.98 398.154v33.764c0 8.086-6.56 14.646-14.646 14.646-2.66 0-5.172-.71-7.323-1.971 4.377-2.522 7.323-7.259 7.323-12.675v-33.764z" fill="#c57a44"/></g><g><path d="m379.339 414.798c-31.687 0-57.375-25.687-57.375-57.374v-46.786h57.374 57.374v46.786c.001 31.686-25.686 57.374-57.373 57.374z" fill="#d88a55"/></g><g><path d="m436.709 310.634v46.786c0 31.69-25.682 57.381-57.372 57.381-2.926 0-5.801-.215-8.607-.646 27.61-4.148 48.766-27.972 48.766-56.735v-46.786z" fill="#c57a44"/></g><g><g><path d="m302.351 322.839v23.036h19.51v-30.832c.012-3.57 4.016-5.761 7.07-3.913l.08.049c8.208 4.946 18.422 6.857 28.103 7.935 13.373 1.491 27.657 1.571 41.085.49 6.537-.526 13.105-1.435 19.395-3.344 3.085-.937 6.11-2.099 8.97-3.602 1.095-.577 2.137-1.194 3.127-1.849 3.005-1.987 7.114.189 7.125 3.792v31.275h19.51v-23.036-2.378c0-42.519-34.469-76.988-76.988-76.988-42.519 0-76.988 34.469-76.988 76.988v2.377z" fill="#433f43"/></g></g><g><g><path d="m456.324 320.463v25.415h-17.214v-25.415c0-39.616-29.917-72.236-68.38-76.505 2.823-.318 5.698-.482 8.607-.482 42.517.001 76.987 34.462 76.987 76.987z" fill="#302e30"/></g></g><g><path d="m322.067 357.11h-7.565c-9.017 0-16.326-7.309-16.326-16.326 0-9.017 7.309-16.326 16.326-16.326h7.565z" fill="#d88a55"/></g><g><path d="m436.713 357.11h7.565c9.017 0 16.326-7.309 16.326-16.326 0-9.017-7.309-16.326-16.326-16.326h-7.565z" fill="#d88a55"/></g></g><g><g><g><path d="m52.25 327.869v112.501c0 20.473 16.597 37.07 37.07 37.07h58.218c20.473 0 37.07-16.597 37.07-37.07v-112.501z" fill="#e19974"/></g><g><path d="m184.608 327.866v112.5c0 20.477-16.602 37.079-37.067 37.079h-24.29c20.465 0 37.067-16.602 37.067-37.079v-112.5z" fill="#dc8758"/></g><g><path d="m177.939 505.352h-119.021v-16.087c0-32.867 26.644-59.51 59.51-59.51 32.867 0 59.51 26.644 59.51 59.51v16.087z" fill="#fe93bb"/></g><g><path d="m177.94 489.262v16.092h-24.011v-16.092c0-16.432-6.655-31.31-17.428-42.083-8.076-8.064-18.448-13.833-30.071-16.214 3.874-.802 7.882-1.215 12-1.215 16.432 0 31.31 6.668 42.083 17.428 10.759 10.774 17.427 25.652 17.427 42.084z" fill="#fe76a8"/></g><g><path d="m118.429 447.961c-7.896 0-14.296-6.401-14.296-14.296v-32.953h28.593v32.953c-.001 7.895-6.401 14.296-14.297 14.296z" fill="#ffeee6"/></g><g><path d="m132.724 400.712v32.957c0 7.893-6.403 14.296-14.296 14.296-2.596 0-5.048-.693-7.148-1.924 4.272-2.462 7.148-7.086 7.148-12.372v-32.957z" fill="#ffdfcf"/></g><g><path d="m118.429 418.866c-32.979 0-59.713-26.734-59.713-59.713v-48.693l26.623-16.02 33.09 16.02h59.713v48.693c0 32.979-26.735 59.713-59.713 59.713z" fill="#ffeee6"/></g><g><path d="m178.146 310.462v48.69c0 32.986-26.744 59.717-59.717 59.717-4.13 0-8.174-.425-12.072-1.227 27.181-5.587 47.621-29.646 47.621-58.491v-48.69h24.168z" fill="#ffdfcf"/></g><g><path d="m179.29 283.559c-16.831-39.757-68.84-52.949-102.313-25.828-7.587 6.147-14.611 14.497-19.408 25.828-3.654 8.631-5.318 17.974-5.318 27.346v19.368s6.931.001 7.218.003c11.966.078 23.9-1.982 34.986-6.489 8.369-3.402 16.559-8.203 23.975-15.196 7.416 6.993 15.606 11.794 23.975 15.196 11.085 4.506 23.02 6.566 34.986 6.489.287-.002 7.218-.003 7.218-.003v-19.368c-.002-9.372-1.666-18.715-5.319-27.346z" fill="#e19974"/></g><g><path d="m184.608 310.911v19.359s-6.935 0-7.214 0c-5.733.036-11.453-.413-17.076-1.397v-17.768c0-9.376-1.664-18.716-5.32-27.351-9.145-21.618-28.699-35.379-50.013-39.071 29.464-5.732 61.722 9.145 74.304 38.877 3.655 8.635 5.319 17.975 5.319 27.351z" fill="#dc8758"/></g></g></g></g><g><g><path d="m339.769 505.354h-166.834v-22.55c0-46.07 37.347-83.417 83.417-83.417 46.07 0 83.417 37.347 83.417 83.417z" fill="#99e6fc"/></g><g><path d="m339.767 482.8v22.551h-23.552v-22.551c0-23.034-9.338-43.889-24.435-58.974-12.471-12.482-28.886-21.02-47.21-23.599 3.851-.553 7.784-.836 11.776-.836 23.034 0 43.901 9.338 58.985 24.435 15.098 15.085 24.436 35.94 24.436 58.974z" fill="#62dbfb"/></g><g><path d="m256.352 424.908c-11.068 0-20.039-8.972-20.039-20.039v-46.19h40.079v46.19c0 11.067-8.972 20.039-20.04 20.039z" fill="#fed2a4"/></g><g><path d="m276.389 358.679v46.197c0 11.064-8.975 20.039-20.039 20.039-3.639 0-7.076-.971-10.019-2.697 5.988-3.451 10.019-9.932 10.019-17.342v-46.197z" fill="#ffbd86"/></g><g><path d="m256.357 381.452c-43.355 0-78.502-35.146-78.502-78.501v-64.014h78.502 78.502v64.014c-.001 43.354-35.147 78.501-78.502 78.501z" fill="#fed2a4"/></g><g><path d="m334.857 238.933v64.014c0 43.359-35.139 78.51-78.498 78.51-4.004 0-7.937-.294-11.776-.883 37.777-5.676 66.722-38.272 66.722-77.627v-64.014z" fill="#ffbd86"/></g><g><path d="m349.145 216.347c-2.218-3.12-2.829-7.08-1.911-10.796 1.952-7.901 2.812-16.271 3.068-24.561.228-7.389-.286-14.83-1.47-22.157-1.279-7.914-8.931-13.15-16.772-11.484-5.22 1.109-10.148 2.075-10.905 2.225-23.09 4.563-45.103 5.062-68.495 6.649-21.289 1.445-42.652 4.606-61.915 14.303-13.788 6.941-22.394 20.386-22.486 35.01v.046c-.017 2.989-.983 5.91-2.826 8.264-9.235 11.799-14.414 26.47-14.414 41.784v31.518h26.695l.139-42.302c.016-4.886 5.358-7.774 9.534-5.237.037.022.073.044.11.066 11.23 6.767 25.206 9.381 38.451 10.858 18.297 2.039 37.841 2.149 56.214.671 8.944-.72 17.93-1.963 26.536-4.576 4.222-1.281 8.359-2.872 12.273-4.929 1.469-.774 2.867-1.601 4.198-2.477 4.151-2.733 9.672.164 9.689 5.135l.141 42.791h26.695v-31.518c0-14.249-4.485-27.943-12.549-39.283z" fill="#596c76"/></g><g><path d="m361.694 255.631v31.524h-21.927v-31.524c0-14.249-4.487-27.944-12.541-39.284-2.226-3.121-2.838-7.077-1.919-10.798 1.955-7.902 2.814-16.274 3.074-24.553.224-7.395-.283-14.838-1.472-22.162-.636-3.898-2.814-7.16-5.806-9.244.024 0 .035-.012.059-.012.754-.153 5.676-1.119 10.904-2.226 7.831-1.672 15.485 3.568 16.769 11.481 1.178 7.325 1.696 14.767 1.472 22.162-.259 8.278-1.119 16.651-3.074 24.553-.919 3.721-.306 7.678 1.908 10.798 8.066 11.341 12.553 25.036 12.553 39.285z" fill="#465a61"/></g><g><path d="m177.996 302.521h-10.35c-12.337 0-22.338-10.001-22.338-22.338 0-12.337 10.001-22.338 22.338-22.338h10.35z" fill="#fed2a4"/></g><g><path d="m334.858 302.521h10.35c12.337 0 22.338-10.001 22.338-22.338 0-12.337-10.001-22.338-22.338-22.338h-10.35z" fill="#fed2a4"/></g></g></g></g><g><path d="m461.529 0h-90.799c-4.142 0-7.5 3.358-7.5 7.5s3.358 7.5 7.5 7.5h90.799c4.958 0 8.991 4.034 8.991 8.991v35.468c0 4.958-4.033 8.991-8.991 8.991h-10.665c-7.07 0-12.823 5.752-12.823 12.822v31.353l-44.859-38.13c-4.585-3.898-10.425-6.044-16.444-6.044h-88.666c-4.765 0-9.107 2.617-11.334 6.829-.031.058-.061.117-.09.176l-20.221 40.82-20.221-40.82c-.029-.059-.059-.118-.09-.176-2.227-4.212-6.569-6.829-11.334-6.829h-88.666c-6.019 0-11.858 2.146-16.444 6.044l-44.859 38.13v-31.352c0-7.07-5.752-12.822-12.822-12.822h-10.666c-4.958 0-8.991-4.034-8.991-8.992v-35.468c0-4.958 4.033-8.991 8.991-8.991h284.536c4.142 0 7.5-3.358 7.5-7.5s-3.358-7.5-7.5-7.5h-284.536c-13.229 0-23.991 10.762-23.991 23.991v35.468c0 13.229 10.762 23.992 23.991 23.992h8.487v33.884c0 5.057 2.851 9.516 7.441 11.638s9.834 1.406 13.686-1.869l48.448-41.18c1.876-1.595 4.267-2.474 6.729-2.474h87.311l21.576 43.556c.029.06.06.118.09.177 2.227 4.211 6.57 6.828 11.333 6.828s9.106-2.616 11.333-6.828c.031-.059.061-.117.09-.177l21.576-43.556h87.311c2.463 0 4.853.878 6.729 2.473l48.448 41.181c3.853 3.275 9.097 3.991 13.686 1.869s7.44-6.582 7.44-11.638v-33.884h8.487c13.229 0 23.991-10.762 23.991-23.991v-35.469c.004-13.229-10.759-23.991-23.988-23.991z"/><path d="m224.777 276.626c-4.142 0-7.5 3.358-7.5 7.5v14.521c0 4.142 3.358 7.5 7.5 7.5s7.5-3.358 7.5-7.5v-14.521c0-4.142-3.358-7.5-7.5-7.5z"/><path d="m287.937 276.626c-4.142 0-7.5 3.358-7.5 7.5v14.521c0 4.142 3.358 7.5 7.5 7.5s7.5-3.358 7.5-7.5v-14.521c0-4.142-3.358-7.5-7.5-7.5z"/><path d="m463.827 320.46c0-46.587-37.901-84.488-84.488-84.488-4.25 0-8.422.332-12.504.946-2.273-8.876-6.16-17.299-11.577-24.918-.892-1.254-1.162-2.949-.742-4.65 1.905-7.707 2.979-16.253 3.284-26.128.239-7.754-.287-15.69-1.563-23.584-.935-5.788-4.247-11.008-9.086-14.324-4.843-3.317-10.909-4.52-16.648-3.3-3.183.676-6.74 1.403-10.575 2.159l-.225.044c-17.943 3.546-35.22 4.569-53.512 5.652-4.636.274-9.309.551-14.037.872-19.894 1.35-43.147 4.198-64.779 15.087-16.306 8.208-26.503 24.172-26.614 41.713-.007 1.37-.445 2.678-1.231 3.683-7.303 9.33-12.271 20.311-14.561 31.861-2.073-.801-4.192-1.519-6.358-2.142-21.667-6.234-44.372-2.626-62.292 9.901-3.395 2.373-4.223 7.049-1.85 10.444 2.373 3.396 7.051 4.223 10.444 1.85 14.193-9.92 32.252-12.757 49.551-7.78 3.147.906 6.165 2.068 9.058 3.429v5.869c-3.588 4.925-5.712 10.981-5.712 17.527 0 16.453 13.385 29.838 29.838 29.838h3.024c.354 4.32 1.028 8.55 1.999 12.667-9.732-.421-18.921-2.385-27.441-5.849-8.421-3.423-15.504-7.906-21.653-13.705-2.89-2.725-7.402-2.725-10.291 0-6.15 5.798-13.233 10.281-21.654 13.705-9.807 3.987-20.566 5.976-31.879 5.938v-11.873c0-8.801 1.589-17.018 4.724-24.421.329-.776.669-1.537 1.021-2.283 1.766-3.747.16-8.216-3.586-9.982-3.747-1.767-8.216-.161-9.982 3.586-.436.924-.857 1.866-1.265 2.829-3.923 9.265-5.912 19.449-5.912 30.271v129.465c0 10.632 3.753 20.397 9.992 28.063-2.151 6.56-3.324 13.56-3.324 20.831v16.087c0 4.142 3.358 7.5 7.5 7.5l268.558.003h112.826c4.142 0 7.5-3.358 7.5-7.5v-16.481c0-30.001-19.409-55.526-46.321-64.753v-5.734c22.733-8.286 39.572-28.932 42.324-53.777h.472c13.138 0 23.826-10.688 23.826-23.826 0-5.052-1.585-9.738-4.277-13.597v-6.725zm-103.78-40.276c0 8.182-6.656 14.838-14.838 14.838h-2.851v-29.676h2.851c8.182-.001 14.838 6.655 14.838 14.838zm-189.692 14.837h-2.71c-8.182 0-14.838-6.656-14.838-14.838s6.656-14.838 14.838-14.838h2.71zm-104.139 42.585c10.939-.616 21.349-2.921 31.062-6.871 7.926-3.222 14.898-7.248 21.15-12.225 6.252 4.977 13.225 9.003 21.15 12.225 9.711 3.948 20.137 6.23 31.063 6.851v21.567c0 28.791-23.422 52.213-52.213 52.213-28.79 0-52.212-23.422-52.212-52.213zm59.009 88.416v7.643c0 3.747-3.049 6.796-6.796 6.796s-6.796-3.049-6.796-6.796v-7.643c2.235.226 4.502.344 6.796.344s4.561-.118 6.796-.344zm-65.475 14.349v-48.494c8.024 14.331 21.141 25.435 36.882 30.851v3.175c-14.145 4.879-26.152 14.373-34.233 26.669-1.696-3.722-2.649-7.851-2.649-12.201zm105.686 42.434v15.047h-99.018v-8.587c0-21.454 13.063-39.899 31.648-47.837 3.135 8.196 11.078 14.033 20.362 14.033 9.286 0 17.229-5.839 20.364-14.036 12.462 5.324 22.436 15.374 27.656 27.889-.659 4.403-1.012 8.905-1.012 13.491zm11.671-44.499c-1.943 3.446-3.663 7.033-5.152 10.737-7.968-10.57-18.977-18.719-31.73-23.119v-3.196c15.741-5.416 28.859-16.521 36.882-30.851zm-6.753-193.484-.018 5.523h-2.69c-3.13 0-6.148.487-8.985 1.385.792-12.042 5.216-23.726 12.679-33.26 2.824-3.608 4.394-8.17 4.42-12.886.074-11.829 7.108-22.695 18.357-28.357 19.248-9.689 40.652-12.271 59.051-13.52 4.685-.318 9.314-.592 13.908-.864 18.816-1.114 36.588-2.167 55.536-5.911l.219-.043c3.906-.771 7.536-1.512 10.79-2.204 1.768-.374 3.561-.019 5.052 1.003 1.49 1.021 2.469 2.562 2.756 4.341 1.124 6.954 1.587 13.929 1.377 20.729-.271 8.805-1.205 16.326-2.853 22.993-1.469 5.948-.347 12.123 3.08 16.941 6.535 9.19 10.303 19.833 11.024 30.992-2.797-.87-5.769-1.339-8.848-1.339h-2.831l-.02-6.011c-.017-5.036-2.778-9.642-7.208-12.02-4.46-2.393-9.864-2.146-14.104.646-1.136.748-2.336 1.456-3.563 2.102-3.226 1.695-6.812 3.131-10.963 4.391-6.937 2.105-14.868 3.464-24.959 4.276-18.605 1.498-37.547 1.272-54.782-.648-10.911-1.216-24.796-3.432-35.36-9.797l-.136-.083c-4.268-2.593-9.613-2.696-13.948-.267-4.355 2.441-6.965 6.884-6.981 11.888zm86.003 129.13c-38.861 0-70.514-31.386-70.98-70.139.073-.42-.031-56.714-.031-56.714 12.766 7.125 27.879 9.564 39.771 10.89 18.171 2.026 38.105 2.265 57.647.693 11.189-.901 20.122-2.45 28.113-4.875 5.067-1.538 9.51-3.326 13.59-5.47.983-.518 1.952-1.064 2.899-1.634l-.008 55.82v.429c0 39.149-31.851 71-71.001 71zm12.535 14.086v16.831c0 6.915-5.625 12.54-12.54 12.54-6.914 0-12.539-5.625-12.539-12.54v-16.832c4.096.601 8.284.915 12.544.915 4.257 0 8.442-.314 12.535-.914zm-40.079-3.624v11.751c-14.008 4.463-26.546 12.241-36.706 22.398v-58.553c9.814 11.046 22.419 19.558 36.706 24.404zm103.456 113.44h-151.833v-15.05c0-32.477 20.508-60.235 49.247-71.057 3.063 11.868 13.859 20.66 26.669 20.66 12.811 0 23.607-8.793 26.67-20.661 28.74 10.82 49.247 38.58 49.247 71.057zm-48.377-101.677v-11.76c11.709-3.97 22.284-10.406 31.124-18.676 3.131 24.335 19.793 44.48 42.173 52.643v5.712c-8.292 2.845-15.865 7.243-22.382 12.84-11.265-19.179-29.354-33.889-50.915-40.759zm148.91 92.697v8.981h-85.533v-15.05c0-11.145-2.027-21.822-5.714-31.695 4.847-4.85 10.616-8.774 17.022-11.485 3.138 8.42 11.259 14.434 20.759 14.434 9.501 0 17.622-6.015 20.76-14.437 19.197 8.119 32.706 27.13 32.706 49.252zm-60.613-56.961v-10.023c2.35.259 4.732.407 7.15.407 2.415 0 4.795-.148 7.143-.406v10.021c0 3.94-3.206 7.146-7.146 7.146s-7.147-3.205-7.147-7.145zm57.041-111.316c-.006.001-.011.004-.017.005v36.821c0 27.5-22.374 49.874-49.874 49.874-27.5 0-49.874-22.374-49.874-49.874v-9.292c4.64-7.486 8.168-15.732 10.343-24.507 5.772 1.558 11.503 2.389 16.476 2.943 13.409 1.493 28.111 1.67 42.518.512 8.327-.67 14.991-1.828 20.971-3.643 3.49-1.059 6.593-2.278 9.458-3.717zm8.616-16.61c-3.898-2.088-8.608-1.87-12.292.566-.789.521-1.625 1.016-2.479 1.466-2.242 1.178-4.748 2.181-7.659 3.064-4.927 1.496-10.589 2.463-17.818 3.045-13.468 1.083-27.18.921-39.653-.468-3.35-.374-7.091-.888-10.862-1.704 15.582-.971 27.964-13.95 27.964-29.773 0-6.633-2.178-12.766-5.853-17.725v-6.827c0-1.3-.045-2.593-.111-3.883 3.348-.503 6.77-.775 10.256-.775 37.284 0 67.793 29.519 69.41 66.412-1.449-.276-2.942-.427-4.471-.427h-.057l-.008-2.383c-.015-4.436-2.455-8.493-6.367-10.588zm6.432 45.623h-.065v-17.652h.065c4.867 0 8.826 3.959 8.826 8.826s-3.959 8.826-8.826 8.826z"/></g></g></svg>